<svg xmlns="http://www.w3.org/2000/svg" version="1.1" xmlns:xlink="http://www.w3.org/1999/xlink" width="51" height="51"><svg width="51" height="51" viewBox="0 0 51 51" fill="none" xmlns="http://www.w3.org/2000/svg">
<rect x="0.340454" y="0.873474" width="50" height="50" rx="9" fill="black"></rect>
<path d="M8.70711 26.6777C8.31658 26.2872 8.31658 25.654 8.70711 25.2635L24.2635 9.70713C24.654 9.3166 25.2871 9.3166 25.6777 9.70713L41.234 25.2635C41.6245 25.654 41.6245 26.2872 41.234 26.6777L26.3848 41.5269C25.6037 42.308 24.3374 42.308 23.5563 41.5269L8.70711 26.6777Z" fill="#FFB800"></path>
<path d="M34.0287 25.9706C34.0287 30.9411 25.0287 39.9706 25.0287 39.9706C25.0287 39.9706 16.0287 30.9411 16.0287 25.9706C16.0287 21 20.0581 16.9706 25.0287 16.9706C29.9992 16.9706 34.0287 21 34.0287 25.9706Z" fill="#E30000"></path>
<path d="M15.0287 30.9706L25.0287 40.9706L38.0287 27.9706" stroke="#00A508" stroke-width="3" stroke-linecap="round" stroke-linejoin="round"></path>
<circle cx="25.0287" cy="25.9706" r="5" fill="white"></circle>
</svg><style>@media (prefers-color-scheme: light) { :root { filter: none; } }
@media (prefers-color-scheme: dark) { :root { filter: none; } }
</style></svg>